#!OML:ASF F:\VICON\USERDATA\INSTALL\rory3\rory3.ASF
:FULLY-SPECIFIED
:DEGREES
55
root 1.0899289844748363 17.80293858257137 20.37403359645357 -1.6455125594510442 3.076965585050673 4.346980782736264
lfemur -1.9019441927963205 -3.8818549095070582 -23.70862445768391
ltibia 25.786424242996343
lfoot -7.611205651913329 0.36042633702832694
ltoes -5.160569227851598
rfemur -16.685129611138276 1.8432891485183907 21.19710287815892
rtibia 58.3512991892124
rfoot -6.754935530972554 -10.79693295722744
rtoes 1.5206802257578387
lowerback 11.511099011868152 -0.3578383524999148 -3.385482495480158
upperback -0.05831342249275035 -0.9385533825188408 1.0955064024886374
thorax -6.303816180440934 -0.33143963141674476 4.387322511894535
lowerneck -16.29171128180078 -3.303503408678915 -2.607995016157918
upperneck 21.472038214941072 -4.2902284774984265 1.7866394064893307
head 9.50243327569213 -1.9909193764367514 0.4966860606387725
lclavicle -2.0301699200413233e-15 -7.141148780810993e-16
lhumerus -30.22550425944346 0.34873819573846454 81.0256607992369
lradius 24.23737116048979
lwrist 5.373737215171738
lhand -28.81767545356104 20.76533163954786
lfingers 7.12502
lthumb -2.5814700254086747 49.90511593499157
rclavicle -2.027032994927665e-15 -7.121011633033466e-16
rhumerus -27.88198602371786 -20.478375893387668 -78.19177448094942
rradius 25.314953856672332
rwrist 0.89609289316309
rhand -17.847822918445722 21.539078195036243
rfingers 7.12502
rthumb 8.46078681881122 -8.056699454425916
56
root 1.0800416505578172 17.7516219944111 21.399619793906027 -1.683513830650081 2.9421194896513687 4.237087274557849
lfemur 0.11558106303258953 -3.992598290130311 -23.687254946980637
ltibia 26.148013486876525
lfoot -7.865600482650575 -0.3431550305382878
ltoes -7.217248415936189
rfemur -17.856244025839725 1.5319718164371134 21.25865987416958
rtibia 56.46603566186836
rfoot -5.696763972013885 -10.886576470328226
rtoes 2.2282635778619984
lowerback 11.739257706604594 -0.5899893063921546 -3.3131208540965496
upperback -0.062149100992851376 -1.2075231008873508 1.335562659725519
thorax -6.45224788312571 -0.42178963330907765 4.838727160238058
lowerneck -16.178408607441376 -3.2995476258259577 -2.651063348071129
upperneck 21.430154828219482 -4.315030565850189 1.8904795392861744
head 9.462540652842891 -2.0032074871484724 0.5334880973942397
lclavicle -2.028809650275401e-15 -7.132474878560056e-16
lhumerus -29.891427174035094 0.7351395260381253 81.0050369066137
lradius 25.36045483666595
lwrist 7.98880711653502
lhand -28.940567370978332 19.33010921557372
lfingers 7.12502
lthumb -2.5623732131839914 48.743737333865404
rclavicle -2.0271790767782863e-15 -7.121943931375087e-16
rhumerus -28.264859259426885 -19.720852915696838 -78.3298827276945
rradius 25.083099960584022
rwrist 1.1329271265912428
rhand -17.609598461432515 21.65674101119211
rfingers 7.12502
rthumb 8.714150388377805 -7.892564650911144
57
root 1.087932584166793 17.71598986110501 22.717423271808507 -1.2360501006952558 2.880581188456581 3.3268535192062147
lfemur 1.6454840093751422 -4.34818521567322 -23.146608369342452
ltibia 25.78602679646152
lfoot -7.548183336084717 -0.8071353801854979
ltoes -8.744438102122329
rfemur -19.163199298451413 1.215434091686689 21.99526181213844
rtibia 53.61808491241814
rfoot -4.676594831850172 -11.33195141730167
rtoes 2.5719154822457626
lowerback 11.526153909149622 -0.8977363184511591 -2.6670937769323553
upperback -0.13091182566476328 -1.4095226495993254 1.6855691734654799
thorax -6.301557013741458 -0.5194808156988342 4.849867185103356
lowerneck -16.21375116086364 -3.2872449265317245 -2.6875173617248627
upperneck 21.622946623564268 -4.292132226640151 1.9282064064156224
head 9.556320860960215 -1.9929219331434873 0.549643156096252
lclavicle -2.0275828255101934e-15 -7.124617092614768e-16
lhumerus -29.524237502906182 1.0041710471065084 80.87680634398234
lradius 26.33220953777231
lwrist 9.674573908326256
lhand -29.447363911667836 18.68748587852691
lfingers 7.12502
lthumb -2.8387383892569202 48.12385230350045
rclavicle -2.0278832255971637e-15 -7.126439038983043e-16
rhumerus -28.711732801359553 -19.16214183071559 -78.1983412015872
rradius 24.87476171410586
rwrist 1.4994318877937451
rhand -17.32705091234363 21.906463567297898
rfingers 7.12502
rthumb 9.1499776693395 -7.388799832963817
58
root 1.0972099375279103 17.73173035885936 23.803995859342077 -1.2237404003956873 2.721926945032423 2.5167728799246545
lfemur 2.9261483829029764 -4.55191733189918 -22.863671468815017
ltibia 25.091475590278893
lfoot -5.3930414057542055 -1.9303759376276868
ltoes -11.817821040995652
rfemur -20.44594607467629 0.7383971828384548 22.56912802565965
rtibia 49.80368421625759
rfoot -3.540053527938041 -11.96159053648064
rtoes 1.501550649040942
lowerback 11.429988447851398 -1.2177460191108755 -2.082186106783679
upperback -0.2576378130608353 -1.619538147178442 1.9655376072536423
thorax -6.276423341538763 -0.6660349357976194 4.800119011717796
lowerneck -16.207761390712026 -3.268364859385743 -2.7308424218925933
upperneck 21.7785185536488 -4.232332452039662 1.9119869192765684
head 9.631826134058953 -1.9728646063718427 0.560190093000041
lclavicle -2.0306987004537026e-15 -7.144544567630331e-16
lhumerus -29.545405732533762 1.79449760130466 80.70711501572693
lradius 27.276818332162048
lwrist 9.347822749136812
lhand -29.505391528940372 18.688294431494537
lfingers 7.12502
lthumb -2.851210695720266 48.17824585571842
rclavicle -2.029926669201134e-15 -7.139486612221223e-16
rhumerus -29.152616098138697 -18.85872025290493 -77.76991446996632
rradius 24.471758806645312
rwrist 1.9545253510462703
rhand -17.16193638713568 21.745401025522614
rfingers 7.12502
rthumb 9.351167102337858 -7.428336944649178
59
root 1.136019662404261 17.785004976410534 24.716096846022158 -0.7569791504381338 3.308528055450554 2.2842309727537673
lfemur 3.5690250476786325 -4.881451140633175 -22.695205618947707
ltibia 24.13292399974455
lfoot -0.5558300284498126 -3.263644958679342
ltoes -12.777557276467448
rfemur -21.436906503927855 -0.39718604363918475 22.661813090013652
rtibia 45.44916362955509
rfoot -2.106633677346897 -12.553662090672185
rtoes 3.367536687061446
lowerback 11.088179974409352 -1.8286546292772432 -1.5454364154827263
upperback -0.491034170535282 -2.16281079711447 2.162826002081549
thorax -6.224523572061592 -0.947920359378237 4.562454367850665
lowerneck -16.09977087016682 -3.240425830131556 -2.7796173628733003
upperneck 21.882310069093936 -4.148160758770633 1.7966916274092553
head 9.65170964305446 -1.9432029376610378 0.5485575995977336
lclavicle -2.0297348207576956e-15 -7.138362319584545e-16
lhumerus -29.926314056939763 2.430035262650731 80.57825699863626
lradius 28.383933748115357
lwrist 8.628595762609958
lhand -29.137849374771744 19.181879375015242
lfingers 7.12502
lthumb -2.2986277355327602 49.19410393341886
rclavicle -2.0274060026071185e-15 -7.123391338801807e-16
rhumerus -29.99755682258215 -19.070245915764072 -77.07174972928426
rradius 24.11383730092475
rwrist 2.40590749829938
rhand -16.914265798526586 21.578352329808407
rfingers 7.12502
rthumb 9.448858906149944 -7.92509036476965
60
root 1.1724685507389945 17.85143879329196 25.304735770750362 -0.4873147849118493 3.7343430162639213 2.1562844288763596
lfemur 4.003342942015905 -4.995564659331503 -22.78521552149394
ltibia 22.746678223553474
lfoot 5.269383409230789 -4.712939369107948
ltoes -11.07915857909515
rfemur -22.30770640389611 -1.1744434506462285 22.62420265032946
rtibia 40.82189130168497
rfoot -0.5720784338188816 -12.922661979728751
rtoes 3.9794181055038633
lowerback 10.880985572985143 -2.227517242678683 -1.2899556905884706
upperback -0.6360171319664223 -2.587181980972129 2.3023069258283173
thorax -6.130124699091311 -1.1616507742218738 4.531474433275073
lowerneck -16.110432253290632 -3.2400057433545624 -2.862174864474941
upperneck 22.035834050737968 -4.121570349350618 1.8097161729747357
head 9.72126652212398 -1.9296313042254898 0.5654231295999438
lclavicle -2.0296249132091764e-15 -7.137659276693306e-16
lhumerus -30.431031120077076 2.517706695919388 80.52856971107205
lradius 29.677718591321486
lwrist 8.414262896959116
lhand -28.752262531376367 19.523079470609026
lfingers 7.12502
lthumb -1.8485225381221497 49.458523490222326
rclavicle -2.0300149974210992e-15 -7.140050084359896e-16
rhumerus -30.624725412625452 -19.20566712811216 -76.27761950772043
rradius 23.77734927050861
rwrist 2.7525371022058795
rhand -16.776002324017707 21.400112060006293
rfingers 7.12502
rthumb 9.567718977900087 -8.125073710179441
